<mxfile host="Electron" modified="2023-10-16T16:56:14.918Z" agent="Mozilla/5.0 (Windows NT 10.0; Win64; x64) AppleWebKit/537.36 (KHTML, like Gecko) draw.io/22.0.2 Chrome/114.0.5735.289 Electron/25.8.4 Safari/537.36" etag="yZnu0iGboTrE652JXlXL" version="22.0.2" type="device">
  <diagram name="PÃ¡gina-1" id="U4hbYqvvhdwcPmlLkanX">
    <mxGraphModel dx="1036" dy="606" grid="1" gridSize="10" guides="1" tooltips="1" connect="1" arrows="1" fold="1" page="1" pageScale="1" pageWidth="827" pageHeight="1169" math="0" shadow="0">
      <root>
        <mxCell id="0" />
        <mxCell id="1" parent="0" />
        <mxCell id="DUTQ8a0r4ggCUer7X9i4-1" value="Alumnos" style="whiteSpace=wrap;html=1;align=center;" vertex="1" parent="1">
          <mxGeometry x="80" y="160" width="100" height="40" as="geometry" />
        </mxCell>
        <mxCell id="DUTQ8a0r4ggCUer7X9i4-2" value="nombre" style="ellipse;whiteSpace=wrap;html=1;align=center;" vertex="1" parent="1">
          <mxGeometry x="160" y="40" width="100" height="40" as="geometry" />
        </mxCell>
        <mxCell id="DUTQ8a0r4ggCUer7X9i4-3" value="grupo" style="ellipse;whiteSpace=wrap;html=1;align=center;" vertex="1" parent="1">
          <mxGeometry x="210" y="100" width="100" height="40" as="geometry" />
        </mxCell>
        <mxCell id="DUTQ8a0r4ggCUer7X9i4-4" value="numero_matricula" style="ellipse;whiteSpace=wrap;html=1;align=center;" vertex="1" parent="1">
          <mxGeometry x="30" y="40" width="100" height="40" as="geometry" />
        </mxCell>
        <mxCell id="DUTQ8a0r4ggCUer7X9i4-6" value="" style="endArrow=none;html=1;rounded=0;exitX=1;exitY=0.5;exitDx=0;exitDy=0;" edge="1" parent="1" source="DUTQ8a0r4ggCUer7X9i4-1">
          <mxGeometry relative="1" as="geometry">
            <mxPoint x="200" y="179.5" as="sourcePoint" />
            <mxPoint x="360" y="179.5" as="targetPoint" />
          </mxGeometry>
        </mxCell>
        <mxCell id="DUTQ8a0r4ggCUer7X9i4-7" value="" style="endArrow=none;html=1;rounded=0;entryX=0;entryY=0.5;entryDx=0;entryDy=0;exitX=0.75;exitY=0;exitDx=0;exitDy=0;" edge="1" parent="1" source="DUTQ8a0r4ggCUer7X9i4-1" target="DUTQ8a0r4ggCUer7X9i4-3">
          <mxGeometry width="50" height="50" relative="1" as="geometry">
            <mxPoint x="150" y="160" as="sourcePoint" />
            <mxPoint x="200" y="110" as="targetPoint" />
          </mxGeometry>
        </mxCell>
        <mxCell id="DUTQ8a0r4ggCUer7X9i4-8" value="" style="endArrow=none;html=1;rounded=0;entryX=0.5;entryY=1;entryDx=0;entryDy=0;exitX=0.096;exitY=-0.025;exitDx=0;exitDy=0;exitPerimeter=0;" edge="1" parent="1" source="DUTQ8a0r4ggCUer7X9i4-1" target="DUTQ8a0r4ggCUer7X9i4-4">
          <mxGeometry width="50" height="50" relative="1" as="geometry">
            <mxPoint x="40" y="160" as="sourcePoint" />
            <mxPoint x="90" y="110" as="targetPoint" />
          </mxGeometry>
        </mxCell>
        <mxCell id="DUTQ8a0r4ggCUer7X9i4-9" value="" style="endArrow=none;html=1;rounded=0;entryX=0;entryY=1;entryDx=0;entryDy=0;exitX=0.5;exitY=0;exitDx=0;exitDy=0;" edge="1" parent="1" source="DUTQ8a0r4ggCUer7X9i4-1" target="DUTQ8a0r4ggCUer7X9i4-2">
          <mxGeometry width="50" height="50" relative="1" as="geometry">
            <mxPoint x="120" y="140" as="sourcePoint" />
            <mxPoint x="170" y="90" as="targetPoint" />
          </mxGeometry>
        </mxCell>
        <mxCell id="DUTQ8a0r4ggCUer7X9i4-10" value="Realiza" style="shape=rhombus;perimeter=rhombusPerimeter;whiteSpace=wrap;html=1;align=center;" vertex="1" parent="1">
          <mxGeometry x="360" y="150" width="120" height="60" as="geometry" />
        </mxCell>
        <mxCell id="DUTQ8a0r4ggCUer7X9i4-11" value="Examen" style="whiteSpace=wrap;html=1;align=center;" vertex="1" parent="1">
          <mxGeometry x="630" y="160" width="100" height="40" as="geometry" />
        </mxCell>
        <mxCell id="DUTQ8a0r4ggCUer7X9i4-12" value="" style="endArrow=none;html=1;rounded=0;entryX=0;entryY=0.5;entryDx=0;entryDy=0;exitX=1;exitY=0.5;exitDx=0;exitDy=0;" edge="1" parent="1" source="DUTQ8a0r4ggCUer7X9i4-10" target="DUTQ8a0r4ggCUer7X9i4-11">
          <mxGeometry width="50" height="50" relative="1" as="geometry">
            <mxPoint x="540" y="230" as="sourcePoint" />
            <mxPoint x="590" y="180" as="targetPoint" />
          </mxGeometry>
        </mxCell>
        <mxCell id="DUTQ8a0r4ggCUer7X9i4-13" value="nota" style="ellipse;whiteSpace=wrap;html=1;align=center;" vertex="1" parent="1">
          <mxGeometry x="370" y="70" width="100" height="40" as="geometry" />
        </mxCell>
        <mxCell id="DUTQ8a0r4ggCUer7X9i4-14" value="num_examen" style="ellipse;whiteSpace=wrap;html=1;align=center;" vertex="1" parent="1">
          <mxGeometry x="530" y="70" width="100" height="40" as="geometry" />
        </mxCell>
        <mxCell id="DUTQ8a0r4ggCUer7X9i4-15" value="num_preguntas" style="ellipse;whiteSpace=wrap;html=1;align=center;" vertex="1" parent="1">
          <mxGeometry x="620" y="20" width="100" height="40" as="geometry" />
        </mxCell>
        <mxCell id="DUTQ8a0r4ggCUer7X9i4-16" value="fecha_examenes" style="ellipse;whiteSpace=wrap;html=1;align=center;" vertex="1" parent="1">
          <mxGeometry x="700" y="70" width="100" height="40" as="geometry" />
        </mxCell>
        <mxCell id="DUTQ8a0r4ggCUer7X9i4-17" value="" style="endArrow=none;html=1;rounded=0;entryX=0.372;entryY=1.045;entryDx=0;entryDy=0;entryPerimeter=0;exitX=0.5;exitY=0;exitDx=0;exitDy=0;" edge="1" parent="1" source="DUTQ8a0r4ggCUer7X9i4-10" target="DUTQ8a0r4ggCUer7X9i4-13">
          <mxGeometry width="50" height="50" relative="1" as="geometry">
            <mxPoint x="320" y="170" as="sourcePoint" />
            <mxPoint x="370" y="120" as="targetPoint" />
          </mxGeometry>
        </mxCell>
        <mxCell id="DUTQ8a0r4ggCUer7X9i4-18" value="" style="endArrow=none;html=1;rounded=0;exitX=0.588;exitY=-0.085;exitDx=0;exitDy=0;exitPerimeter=0;" edge="1" parent="1" source="DUTQ8a0r4ggCUer7X9i4-11" target="DUTQ8a0r4ggCUer7X9i4-16">
          <mxGeometry width="50" height="50" relative="1" as="geometry">
            <mxPoint x="680" y="160" as="sourcePoint" />
            <mxPoint x="730" y="110" as="targetPoint" />
          </mxGeometry>
        </mxCell>
        <mxCell id="DUTQ8a0r4ggCUer7X9i4-19" value="" style="endArrow=none;html=1;rounded=0;entryX=0.5;entryY=1;entryDx=0;entryDy=0;exitX=0.4;exitY=0;exitDx=0;exitDy=0;exitPerimeter=0;" edge="1" parent="1" source="DUTQ8a0r4ggCUer7X9i4-11" target="DUTQ8a0r4ggCUer7X9i4-15">
          <mxGeometry width="50" height="50" relative="1" as="geometry">
            <mxPoint x="640" y="150" as="sourcePoint" />
            <mxPoint x="690" y="100" as="targetPoint" />
          </mxGeometry>
        </mxCell>
        <mxCell id="DUTQ8a0r4ggCUer7X9i4-20" value="" style="endArrow=none;html=1;rounded=0;entryX=0.692;entryY=0.965;entryDx=0;entryDy=0;entryPerimeter=0;exitX=0.164;exitY=-0.085;exitDx=0;exitDy=0;exitPerimeter=0;" edge="1" parent="1" source="DUTQ8a0r4ggCUer7X9i4-11" target="DUTQ8a0r4ggCUer7X9i4-14">
          <mxGeometry width="50" height="50" relative="1" as="geometry">
            <mxPoint x="550" y="170" as="sourcePoint" />
            <mxPoint x="600" y="120" as="targetPoint" />
          </mxGeometry>
        </mxCell>
        <mxCell id="DUTQ8a0r4ggCUer7X9i4-21" value="Realiza" style="shape=rhombus;perimeter=rhombusPerimeter;whiteSpace=wrap;html=1;align=center;" vertex="1" parent="1">
          <mxGeometry x="360" y="270" width="120" height="60" as="geometry" />
        </mxCell>
        <mxCell id="DUTQ8a0r4ggCUer7X9i4-22" value="" style="endArrow=none;html=1;rounded=0;entryX=0.5;entryY=1;entryDx=0;entryDy=0;exitX=0;exitY=0.5;exitDx=0;exitDy=0;" edge="1" parent="1" source="DUTQ8a0r4ggCUer7X9i4-21" target="DUTQ8a0r4ggCUer7X9i4-1">
          <mxGeometry width="50" height="50" relative="1" as="geometry">
            <mxPoint x="130" y="280" as="sourcePoint" />
            <mxPoint x="140" y="260" as="targetPoint" />
          </mxGeometry>
        </mxCell>
        <mxCell id="DUTQ8a0r4ggCUer7X9i4-23" value="" style="endArrow=none;html=1;rounded=0;entryX=1;entryY=0.5;entryDx=0;entryDy=0;exitX=0;exitY=0.5;exitDx=0;exitDy=0;" edge="1" parent="1" source="DUTQ8a0r4ggCUer7X9i4-24" target="DUTQ8a0r4ggCUer7X9i4-21">
          <mxGeometry width="50" height="50" relative="1" as="geometry">
            <mxPoint x="130" y="410" as="sourcePoint" />
            <mxPoint x="130" y="340" as="targetPoint" />
          </mxGeometry>
        </mxCell>
        <mxCell id="DUTQ8a0r4ggCUer7X9i4-24" value="Practica" style="whiteSpace=wrap;html=1;align=center;" vertex="1" parent="1">
          <mxGeometry x="630" y="310" width="100" height="40" as="geometry" />
        </mxCell>
        <mxCell id="DUTQ8a0r4ggCUer7X9i4-25" value="fecha" style="ellipse;whiteSpace=wrap;html=1;align=center;" vertex="1" parent="1">
          <mxGeometry x="390" y="390" width="100" height="40" as="geometry" />
        </mxCell>
        <mxCell id="DUTQ8a0r4ggCUer7X9i4-26" value="nota" style="ellipse;whiteSpace=wrap;html=1;align=center;" vertex="1" parent="1">
          <mxGeometry x="290" y="350" width="100" height="40" as="geometry" />
        </mxCell>
        <mxCell id="DUTQ8a0r4ggCUer7X9i4-27" value="titulo" style="ellipse;whiteSpace=wrap;html=1;align=center;" vertex="1" parent="1">
          <mxGeometry x="700" y="370" width="100" height="40" as="geometry" />
        </mxCell>
        <mxCell id="DUTQ8a0r4ggCUer7X9i4-28" value="dificultad" style="ellipse;whiteSpace=wrap;html=1;align=center;" vertex="1" parent="1">
          <mxGeometry x="680" y="240" width="100" height="40" as="geometry" />
        </mxCell>
        <mxCell id="DUTQ8a0r4ggCUer7X9i4-29" value="codigo_practica" style="ellipse;whiteSpace=wrap;html=1;align=center;" vertex="1" parent="1">
          <mxGeometry x="540" y="240" width="100" height="40" as="geometry" />
        </mxCell>
        <mxCell id="DUTQ8a0r4ggCUer7X9i4-30" value="" style="endArrow=none;html=1;rounded=0;entryX=0.748;entryY=0.045;entryDx=0;entryDy=0;entryPerimeter=0;exitX=0.307;exitY=0.897;exitDx=0;exitDy=0;exitPerimeter=0;" edge="1" parent="1" source="DUTQ8a0r4ggCUer7X9i4-21" target="DUTQ8a0r4ggCUer7X9i4-26">
          <mxGeometry width="50" height="50" relative="1" as="geometry">
            <mxPoint x="510" y="470" as="sourcePoint" />
            <mxPoint x="560" y="420" as="targetPoint" />
          </mxGeometry>
        </mxCell>
        <mxCell id="DUTQ8a0r4ggCUer7X9i4-31" value="" style="endArrow=none;html=1;rounded=0;" edge="1" parent="1" source="DUTQ8a0r4ggCUer7X9i4-21">
          <mxGeometry width="50" height="50" relative="1" as="geometry">
            <mxPoint x="720" y="490" as="sourcePoint" />
            <mxPoint x="440" y="390" as="targetPoint" />
          </mxGeometry>
        </mxCell>
        <mxCell id="DUTQ8a0r4ggCUer7X9i4-32" value="" style="endArrow=none;html=1;rounded=0;entryX=0.432;entryY=1.015;entryDx=0;entryDy=0;entryPerimeter=0;exitX=0.6;exitY=0;exitDx=0;exitDy=0;exitPerimeter=0;" edge="1" parent="1" source="DUTQ8a0r4ggCUer7X9i4-24" target="DUTQ8a0r4ggCUer7X9i4-28">
          <mxGeometry width="50" height="50" relative="1" as="geometry">
            <mxPoint x="590" y="490" as="sourcePoint" />
            <mxPoint x="640" y="440" as="targetPoint" />
          </mxGeometry>
        </mxCell>
        <mxCell id="DUTQ8a0r4ggCUer7X9i4-33" value="" style="endArrow=none;html=1;rounded=0;entryX=0.6;entryY=1;entryDx=0;entryDy=0;entryPerimeter=0;exitX=0.32;exitY=0.025;exitDx=0;exitDy=0;exitPerimeter=0;" edge="1" parent="1" source="DUTQ8a0r4ggCUer7X9i4-27" target="DUTQ8a0r4ggCUer7X9i4-24">
          <mxGeometry width="50" height="50" relative="1" as="geometry">
            <mxPoint x="670" y="530" as="sourcePoint" />
            <mxPoint x="720" y="480" as="targetPoint" />
          </mxGeometry>
        </mxCell>
        <mxCell id="DUTQ8a0r4ggCUer7X9i4-34" value="" style="endArrow=none;html=1;rounded=0;entryX=0.576;entryY=1.055;entryDx=0;entryDy=0;entryPerimeter=0;exitX=0.25;exitY=0;exitDx=0;exitDy=0;" edge="1" parent="1" source="DUTQ8a0r4ggCUer7X9i4-24" target="DUTQ8a0r4ggCUer7X9i4-29">
          <mxGeometry width="50" height="50" relative="1" as="geometry">
            <mxPoint x="550" y="450" as="sourcePoint" />
            <mxPoint x="600" y="400" as="targetPoint" />
          </mxGeometry>
        </mxCell>
      </root>
    </mxGraphModel>
  </diagram>
</mxfile>
